<?xml version="1.0" encoding="UTF-8" standalone="no"?>
<svg
   width="64"
   height="64"
   viewBox="0 0 64 64"
   fill="none"
   version="1.1"
   id="svg14"
   sodipodi:docname="icon.svg"
   xml:space="preserve"
   inkscape:version="1.4 (86a8ad7, 2024-10-11)"
   inkscape:export-filename="icon.png"
   inkscape:export-xdpi="96"
   inkscape:export-ydpi="96"
   xmlns:inkscape="http://www.inkscape.org/namespaces/inkscape"
   xmlns:sodipodi="http://sodipodi.sourceforge.net/DTD/sodipodi-0.dtd"
   xmlns:xlink="http://www.w3.org/1999/xlink"
   xmlns="http://www.w3.org/2000/svg"
   xmlns:svg="http://www.w3.org/2000/svg"
   xmlns:rdf="http://www.w3.org/1999/02/22-rdf-syntax-ns#"
   xmlns:cc="http://creativecommons.org/ns#"
   xmlns:dc="http://purl.org/dc/elements/1.1/"><title
     id="title62">G3Pix AxonASP Icon</title><sodipodi:namedview
     id="namedview14"
     pagecolor="#505050"
     bordercolor="#ffffff"
     borderopacity="1"
     inkscape:showpageshadow="0"
     inkscape:pageopacity="0"
     inkscape:pagecheckerboard="1"
     inkscape:deskcolor="#505050"
     inkscape:zoom="2.000000007"
     inkscape:cx="-19.49999993"
     inkscape:cy="39.74999985"
     inkscape:window-width="970"
     inkscape:window-height="914"
     inkscape:window-x="182"
     inkscape:window-y="59"
     inkscape:window-maximized="0"
     inkscape:current-layer="g62" /><!-- Definições de filtro para um leve sombreamento (opcional, para dar destaque) --><defs
     id="defs2"><linearGradient
       id="linearGradient25"
       inkscape:collect="always"><stop
         style="stop-color:#000080;stop-opacity:1;"
         offset="0"
         id="stop25" /><stop
         style="stop-color:#000080;stop-opacity:0;"
         offset="1"
         id="stop26" /></linearGradient><filter
       id="dropShadow"
       x="-inf"
       y="-inf"
       width="inf"
       height="inf"><feGaussianBlur
         in="SourceAlpha"
         stdDeviation="1"
         id="feGaussianBlur1" /><feOffset
         dx="1"
         dy="1"
         result="offsetblur"
         id="feOffset1" /><feComponentTransfer
         id="feComponentTransfer1"><feFuncA
           type="linear"
           slope="0.3"
           id="feFuncA1" /></feComponentTransfer><feMerge
         id="feMerge2"><feMergeNode
           id="feMergeNode1" /><feMergeNode
           in="SourceGraphic"
           id="feMergeNode2" /></feMerge></filter><filter
       id="dropShadowSoft"
       x="-0.1102128589"
       y="-1.042874363"
       width="1.266347742"
       height="3.520279712"><feGaussianBlur
         in="SourceAlpha"
         stdDeviation="2"
         id="feGaussianBlur4" /><feOffset
         dx="2"
         dy="2"
         id="feOffset4" /><feComponentTransfer
         id="feComponentTransfer4"><feFuncA
           type="linear"
           slope="0.3"
           id="feFuncA4" /></feComponentTransfer><feMerge
         id="feMerge5"><feMergeNode
           id="feMergeNode4" /><feMergeNode
           in="SourceGraphic"
           id="feMergeNode5" /></feMerge></filter><linearGradient
       id="gradBarRefined"
       x1="0"
       y1="-61.52191544"
       x2="130.0349579"
       y2="-61.52191544"
       gradientTransform="scale(3.076095836,0.3250874008)"
       gradientUnits="userSpaceOnUse"><stop
         offset="0%"
         style="stop-color:#E63020;stop-opacity:1"
         id="stop1" /><!-- Red --><stop
         offset="25%"
         style="stop-color:#FFBB00;stop-opacity:1"
         id="stop2" /><!-- Yellow (A ponte) --><stop
         offset="55%"
         style="stop-color:#209040;stop-opacity:1"
         id="stop3" /><!-- Green --><stop
         offset="100%"
         style="stop-color:#0060D0;stop-opacity:1"
         id="stop4" /><!-- Blue --></linearGradient><linearGradient
       inkscape:collect="always"
       xlink:href="#linearGradient25"
       id="linearGradient27"
       gradientUnits="userSpaceOnUse"
       x1="23.5"
       y1="16.25"
       x2="48.5"
       y2="44"
       gradientTransform="matrix(1.218727476,0,0,1.218727476,-5.895134285,-8.228526077)" /></defs><!-- Grupo Principal --><g
     id="g27" /><g
     id="g62"><path
       d="m 57.58565972,27.97538234 v 3.94896263 h 0.94022921 0.98783586 v -1.97329119 -1.97567144 z m 0,7.89792526 v 5.68184087 h 3.87993326 v -1.93282559 h -0.9640326 -0.98783559 V 37.74900537 35.8733076 Z"
       style="baseline-shift:baseline;display:inline;overflow:visible;vector-effect:none;fill:#ffffff;stroke-width:1.21873;enable-background:accumulate;stop-color:#000000;stop-opacity:1"
       id="path55" /><path
       d="m 50.49874568,27.97538234 v 0.98783572 0.98783572 h -1.03677522 v 19.54248555 h 9.91698053 v -3.94658238 -3.94896263 h 0.10705809 V 35.8733076 h -0.10705809 -4.609142 v 1.98043223 H 50.44239953 V 35.854265 h 0.0563449 v -0.96879313 -0.98783571 h 4.44010266 4.44010267 V 32.9121807 31.92434497 h 0.10705809 v -3.94896263 h -2.2144149 z m 8.88020531,21.51815699 v 0.0309438 h 0.10705809 v -0.0309438 z"
       style="baseline-shift:baseline;display:inline;overflow:visible;vector-effect:none;fill:#ffffff;stroke-width:1.87509;enable-background:accumulate;stop-color:#000000;stop-opacity:1"
       id="path54" /><path
       d="m 15.36341762,6.654792436 c -0.003863,0.0025454 -0.008046,0.004592 -0.0119084,0.0071374 h 3.26104808 v -0.0071374 h -1.93758624 z m -4.43931009,3.751395534 c -0.0582754,0.0623391 -0.11371126,0.12746533 -0.17138359,0.19042619 v 0.79740954 0.97117351 h 1.95662897 v -1.95900924 h -0.96879324 z m 6.86962406,9.80456734 v 0.0666496 h 0.85453748 v -0.0666496 z M 5.035178262,20.72014526 c -0.0021619,0.00724 -0.0050013,0.0141762 -0.0071369,0.0214235 v 1.42105525 h 0.0071369 z m 15.588762268,1.53055035 v 0.88786205 0.89024231 h 1.97329105 v -0.89024231 -0.88786205 h -0.98783559 z m 0,1.77810436 h -0.98783586 -0.9878356 v 0.98545545 0.98783573 h 1.97567146 v -0.98783573 z m -4.77255582,1.97329118 v 0.12139731 H 6.672843333 v 3.82756609 h 0.328485074 v 0.98545534 0.98783572 h 0.887862167 0.887861925 v 0.98783585 0.98545533 h 0.987835716 0.987835725 v -0.98545533 -0.98783585 h 0.98783573 0.98545546 v 1.97329118 1.97567158 h 0.98783573 0.98783572 v -0.98783585 -0.98783573 h 1.97329118 1.97329131 V 32.91218146 31.92434561 H 17.66281361 16.67497776 V 30.93650989 29.95105455 H 15.68714217 14.70168658 12.72601513 V 28.9632187 27.97538297 h 1.97567145 0.98545559 0.98783559 V 26.98992751 26.0020918 Z m 0.82359305,1.97329119 v 0.98783572 0.98783572 h 0.98783585 0.98545546 v -0.98783572 -0.98783572 h -0.98545546 z m -1.97329118,7.89792526 v 0.98545546 0.98783573 h 1.97329118 1.97329131 V 36.85876306 35.8733076 h -1.97329131 z m 3.94658249,1.97329119 v 0.88786205 0.88786204 h 0.9878356 0.98783586 V 38.73446084 37.84659879 Z M 8.777052499,33.89763616 H 7.889190574 7.001328407 v 0.98783571 0.98783573 h 0.887862167 0.887861925 v -0.98783573 z m 0,1.97567144 v 0.98545546 0.98783573 H 9.764888215 10.75272394 V 36.85876306 35.8733076 H 9.764888215 Z m 0,1.97329119 H 7.889190574 7.001328407 v 0.88786205 0.88786204 h 0.887862167 0.887861925 v -0.88786204 z m -1.775724092,0 V 36.85876306 35.8733076 H 6.672843333 v 1.97329119 z m 0,-3.94896263 V 32.9121807 31.92434497 H 6.672843333 v 1.97329119 z"
       style="baseline-shift:baseline;display:inline;overflow:visible;vector-effect:none;fill:#ffffff;stroke-width:1.21873;enable-background:accumulate;stop-color:#000000;stop-opacity:1"
       id="path53" /><path
       d="m 5.028037218,22.16262349 v 0.0880719 h 0.0071369 v -0.0880719 z m 0,0.0880719 H 4.040201497 3.092831373 v 1.77810436 H 4.040201497 5.028037218 V 23.1385574 Z m 0,1.77810436 v 2.96112691 2.96112691 h 0.985455594 0.659350521 v -3.827566 H 5.035178262 v -2.09468786 z m 0,5.92225382 H 4.040201497 3.092831373 v 1.97329119 h 0.947370124 0.987835721 v -0.98783573 z m 0,1.97329119 v 0.98783571 0.98545547 H 6.013492812 6.672843333 V 31.92434472 H 6.013492812 Z m 0,1.97329118 H 4.040201497 3.092831373 v 1.97567145 h 0.947370124 0.987835721 v -0.98783573 z m 0,1.97567145 v 0.98545546 0.98783572 H 6.013492812 6.672843333 V 35.87330735 H 6.013492812 Z m 0,1.97329118 H 4.040201497 3.092831373 v 1.77572409 h 0.947370124 0.987835721 z"
       style="baseline-shift:baseline;display:inline;overflow:visible;vector-effect:none;fill:#ffffff;stroke-width:1.21873;enable-background:accumulate;stop-color:#000000;stop-opacity:1"
       id="path52" /><path
       d="m 6.977525144,14.3170654 v 0.038085 h 0.02380264 v -0.038085 z m 0.02380264,0.038085 v 1.97329119 1.94948793 H 8.76753058 V 14.3551504 H 7.88918983 Z m 8.850056176,5.8556047 v 0.0666496 h 0.82359319 1.11875382 v -0.0666496 z"
       style="baseline-shift:baseline;display:inline;overflow:visible;vector-effect:none;fill:#ffffff;stroke-width:1.21873;enable-background:accumulate;stop-color:#000000;stop-opacity:1"
       id="path51" /><path
       d="m 7.001328407,18.27792972 v 0.0238026 H 6.013492812 5.035178262 v 3.94896276 h 0.97831455 0.987835595 V 23.138557 24.02879944 H 6.013492812 5.035178262 V 26.1234873 H 15.85138471 V 26.00209 h -0.16424254 -0.98545559 v -0.98783573 -0.98545545 h -1.97567145 v -0.89024231 -0.88786205 h 0.98783573 0.98783572 v -0.98783572 -0.98545547 h 1.14969813 v -0.0666496 H 8.767531192 v -1.93282559 z"
       style="baseline-shift:baseline;display:inline;overflow:visible;vector-effect:none;fill:#ffffff;stroke-width:1.21873;enable-background:accumulate;stop-color:#000000;stop-opacity:1"
       id="path50" /><path
       d="M 22.59723158,0.7325386182 V 1.720374341 2.708210065 h 0.88786217 0.88786193 1.97567144 1.97329119 0.98783572 0.98545547 4.83682467 4.83682468 V 1.720374341 0.7325386182 H 31.28304534 Z M 39.96885885,2.708210065 V 3.693665527 4.68150125 h 1.08542913 0.89024231 1.97329132 V 3.693665527 2.708210065 h -1.97329132 z m 3.94896276,1.973291185 v 0.987835852 0.985455334 h 2.96112691 0.98783559 V 5.669337102 4.68150125 H 45.89111267 Z M 22.59723158,2.708210065 H 20.62394053 18.64826907 V 3.693665527 4.68150125 h 3.94420199 V 2.739154363 h 0.004771 z m -7.895545,1.973291185 v 0.987835852 0.985455334 h 1.97329118 1.93758637 V 4.68150125 h -1.93758637 z m 0,1.973291186 h -0.98783572 -0.98783573 v 0.887862046 0.890242312 h 1.96376989 V 6.661933476 h 0.0119084 z m -3.94896264,1.778104358 v 0.985455452 0.987835724 h 0.98783573 0.96879324 V 8.432896794 h -0.96879324 z m 0,1.973291176 H 9.764888215 8.777052499 v 0.98783573 0.97117351 H 10.75272394 V 11.3940237 Z m -3.751395533,1.97329119 v 0.98783573 0.98783572 H 7.889190574 8.767531192 V 12.37947916 H 7.889190574 Z m 0,1.97567145 H 6.013492812 5.028037218 v 1.97329118 1.97329119 H 6.013492812 7.001328407 V 16.32844179 Z M 5.028037218,18.30173298 H 4.040201497 3.052365901 v 1.97567145 1.97329118 H 4.040201497 5.028037218 V 20.27740443 Z M 3.052365901,22.25069561 H 2.066910311 1.079074588 v 8.68581363 8.68581364 h 0.987835723 0.98545559 V 38.73446084 37.84659879 36.85876306 35.8733076 34.88547187 33.89763616 32.9121807 31.92434497 30.93650924 29.95105378 26.98992688 24.02879997 23.13855766 Z m 0,17.37162727 v 1.97567144 1.97329119 h 0.987835596 0.987835721 v -1.97329119 -0.88786204 -1.0878094 H 4.040201497 Z m 1.975671317,3.94896263 v 1.97567144 1.97329119 H 6.013492812 7.001328407 V 45.54695695 44.55912124 43.57128551 H 6.013492812 Z m 1.973291189,3.94896263 v 0.98783573 0.98545546 H 7.889190574 8.777052499 V 48.50808387 47.52024814 H 7.889190574 Z m 1.775724092,1.97329119 v 0.98783572 0.98783572 H 9.764888215 10.75272394 V 50.48137505 49.49353933 H 9.764888215 Z m 1.975671441,1.97567144 v 0.98545547 0.98783572 h 0.98783573 0.98545546 v -0.98783572 -0.98545547 h -0.98545546 z m 1.97329119,1.97329119 v 0.88786205 0.88786205 h 0.98783573 0.98783572 v -1.7757241 h -0.98783572 z m 40.62504262,1.7757241 v 1.97567144 h 0.43798018 v -0.98783573 -0.98783571 z"
       style="baseline-shift:baseline;display:inline;overflow:visible;vector-effect:none;fill:#000000;stroke-width:1.21873;enable-background:accumulate;stop-color:#000000;stop-opacity:1"
       id="path49" /><path
       d="m 8.767531192,12.36519721 v 7.8455581 H 18.64826907 V 19.2895687 18.30173298 h -0.98545546 -0.98783585 v -0.98545546 -0.98783573 h 0.98783585 0.98545546 v -0.0499869 h -3.94658249 v 0.0499869 h -0.98783572 -0.98783573 v -0.0499869 H 12.7093524 V 14.3551505 h -0.96879312 -0.98783585 v 0.98545546 0.98783571 H 9.76488782 8.777052105 V 15.34060596 14.3551505 h 0.987835715 0.98783561 v -0.98783573 -0.98783573 h 1.95662897 v -0.0142823 z"
       style="baseline-shift:baseline;display:inline;overflow:visible;vector-effect:none;fill:#ffffff;stroke-width:1.21873;enable-background:accumulate;stop-color:#000000;stop-opacity:1"
       id="path48" /><path
       d="M 22.59247106,2.717057276 V 4.68150125 h 0.004771 1.77572409 V 3.682427425 2.717057276 Z m 5.72944725,0 V 3.682427425 4.68150125 h 1.10685213 0.86643906 V 3.682427425 2.717057276 Z"
       style="baseline-shift:baseline;display:inline;overflow:visible;vector-effect:none;fill:#ffffff;stroke-width:1.22564;enable-background:accumulate;stop-color:#000000;stop-opacity:1"
       id="path47" /><path
       d="m 14.68978502,6.661933476 v 1.770963318 h 3.92277911 V 6.661933476 Z"
       style="baseline-shift:baseline;display:inline;overflow:visible;vector-effect:none;fill:#ffffff;stroke-width:1.21873;enable-background:accumulate;stop-color:#000000;stop-opacity:1"
       id="path46" /><path
       d="m 18.61256413,4.68150125 v 3.751395544 h 0.0357046 V 7.542654482 6.654792436 h 1.97567145 1.97329106 V 5.669337102 4.68150125 Z m 3.98466745,1.973291186 v 0.887862046 0.890242312 h 0.92832764 0.84739646 V 7.542654482 6.654792436 h -0.88786193 z m 1.7757241,0 h 0.98783571 0.98783573 V 5.669337102 4.68150125 h -1.97567144 v 0.987835852 z"
       style="baseline-shift:baseline;display:inline;overflow:visible;vector-effect:none;fill:#ffffff;stroke-width:1.21873;enable-background:accumulate;stop-color:#000000;stop-opacity:1"
       id="path45" /><rect
       style="fill:#ffffff;stroke-width:2.57487"
       id="rect58"
       width="6.595980167"
       height="9.800058365"
       x="3.060446501"
       y="29.83106613" /><path
       d="M 24.37295568,2.708210065 V 3.693665527 4.68150125 h 0.98783571 0.98783573 v 0.987835852 0.985455334 h -0.98783573 -0.98783571 v 0.887862046 0.890242312 h 0.98783571 0.98783573 v 0.985455452 0.987835724 h 0.98545546 0.98783573 V 7.542654482 4.68150125 3.693665527 2.708210065 h -1.97329119 z m 1.97567144,7.697977905 h -0.98783573 -0.98783571 v 0.98783573 0.98545546 h 0.98783571 0.98783573 V 11.3940237 Z m -1.97567144,0 V 9.418352246 8.432896794 H 23.52555922 V 10.40618797 Z M 30.2952095,2.708210065 V 3.693665527 4.68150125 h 0.98783584 2.96112691 v 0.987835852 0.985455334 h 1.97567145 1.97329106 V 5.669337102 4.68150125 h 1.77572409 V 3.693665527 2.708210065 H 35.13203417 Z M 18.64826907,6.654792436 v 0.887862046 0.890242312 h 3.94896251 V 7.542654482 6.654792436 h -1.97329105 z m -7.89554513,5.724686724 v 0.98783573 0.98783572 h 0.98783573 0.96879324 v -1.97567145 z m 0,1.97567145 H 9.764888215 8.777052499 v 0.98545546 0.98783572 h 0.987835716 0.987835725 v -0.98783572 z m 1.97329119,1.92330428 v 0.0499869 h 0.98783573 0.98783572 v -0.0499869 z m 15.59590318,0.0499869 v 0.98783573 0.98545546 H 25.4607652 22.59723158 v 1.97567144 1.97329119 0.88786205 0.89024231 h 0.88786217 2.86353337 v 0.98545545 0.98783573 h 2.96112691 2.96112691 v -0.98783573 -0.98545545 h 1.97329131 0.98783559 0.98783586 v -0.8902423 -0.88786205 h -1.97567145 -1.97329131 v -1.97329118 -1.97567145 h 0.98783585 0.98545546 v 0.98783572 0.98783573 h 2.86353337 2.86115323 V 19.2895687 18.30173298 h -0.88786192 -0.88786217 v -0.98545546 -0.98783573 h -4.93441797 z m 11.64694054,1.97329119 h 0.98783585 0.98783559 v 0.98783572 0.98783572 h 1.97329132 V 18.30173299 16.3284418 h -1.97329132 -1.97567144 v 0.98783573 z m -21.32058978,1.97567144 v 0.98545547 0.98783572 h -0.98545546 -0.98783585 v 0.88786205 0.89024231 h -1.97329118 v 0.98545545 0.98783573 h 0.98545559 0.98783559 1.97329131 v -0.98783573 -0.98545545 h 0.9878356 0.98783586 V 23.13855765 22.2506956 21.26285988 20.27740441 h -0.98783586 z m 7.70035805,0 h 1.97329119 1.97329119 v 0.98545547 0.98783572 H 28.32191831 26.34862712 V 21.2628599 Z m -21.320589902,1.9732912 v 0.88786205 0.89024231 H 6.013492812 7.001328407 V 23.13855766 22.25069561 H 6.013492812 Z m 0,1.77810436 H 4.040201497 3.052365901 v 2.96112691 2.9611269 h 0.987835596 0.987835721 v -2.9611269 z m 0,5.92225381 v 0.98545546 0.98783573 H 6.013492812 7.001328407 V 30.93650924 29.95105378 H 6.013492812 Z m 1.973291189,1.97329119 v 0.98783573 0.98545546 H 7.889190574 8.777052499 V 32.9121807 31.92434497 H 7.889190574 Z m 1.775724092,1.97329119 v 0.98783571 0.98783573 h 0.987835716 0.987835725 v 0.98545546 0.98783573 H 9.764888215 8.777052499 v 0.88786205 0.88786204 H 7.889190574 7.001328407 v 0.98783572 0.98783572 h 0.887862167 0.887861925 v 1.97329119 1.97567144 H 7.889190574 7.001328407 v 1.97329119 h 0.887862167 0.887861925 v 0.98783573 0.98545546 h 0.987835716 0.987835725 v 0.98783572 0.98783572 h 0.98783573 0.98545546 0.98783573 0.98783572 v 0.98545547 0.98783572 h 0.98545559 0.98783559 v 0.88786205 0.88786205 h 1.97329131 v -0.88786205 -0.88786205 h 0.9878356 0.98783586 v 0.88786205 0.88786205 h 0.98545546 0.98783559 v -0.88786205 -0.88786205 h 0.88786217 0.88786193 v -0.98783572 -0.98545547 h 0.98783571 0.98783573 v -2.9611269 -2.96112692 H 25.36079139 24.37295568 V 41.69558775 37.8465988 h -2.86115324 -0.88786191 v 0.88786205 0.88786204 h -0.98783586 -0.9878356 V 38.73446084 37.84659879 H 16.67497776 14.70168658 V 36.85876306 35.8733076 h -0.98783572 -0.98783573 v -1.97567144 -1.97329119 h -0.98545546 -0.98783573 v 0.98783573 0.98545546 H 9.764888215 Z m 17.571574621,17.5715746 v 0.98545547 0.98783572 h 0.98545546 0.98783573 v -0.98783572 -0.98545547 h -0.98783573 z m 0,1.97329119 h -0.98783573 -0.98783571 v 0.88786205 0.88786191 h 0.98783571 0.98783573 v -0.88786191 z m -1.97567144,1.77572396 h -0.88786193 -0.88786217 v 0.98783585 0.98783573 h 0.88786217 0.88786193 v -0.98783573 z m -3.74901515,0 h -0.98783586 -0.9878356 v 0.98783585 0.98783573 h 1.97567146 V 56.20606177 Z M 7.001328407,39.62232288 V 38.73446084 37.84659879 H 6.013492812 5.028037218 v 1.77572409 H 6.013492812 Z M 5.028037218,37.84659879 V 36.85876306 35.8733076 H 4.040201497 3.052365901 v 0.98545546 0.98783573 h 0.987835596 z m 0,-1.97329119 H 6.013492812 7.001328407 V 34.88547187 33.89763616 H 6.013492812 5.028037218 v 0.98783571 z m 0,-1.97567144 V 32.9121807 31.92434497 H 4.040201497 3.052365901 v 0.98783573 0.98545546 h 0.987835596 z m 1.973291189,1.97567144 v 0.98545546 0.98783573 H 7.889190574 8.777052499 V 36.85876306 35.8733076 H 7.889190574 Z m 5.724686723,-7.89792526 v 0.98783572 0.98783572 h 1.97567145 v -0.98783572 -0.98783572 z m 19.54486581,23.49382843 v 0.98545547 0.98783572 h 0.98783585 0.98545546 v -0.98783572 -0.98545547 h -0.98545546 z m 11.65884223,9.66650845 v 0.004758 h 0.97593404 0.98545546 v -0.004758 z"
       style="baseline-shift:baseline;display:inline;overflow:visible;vector-effect:none;fill:#008000;stroke-width:1.21873;enable-background:accumulate;stop-color:#000000;stop-opacity:1"
       id="path44" /><rect
       style="fill:#ffffff;stroke-width:3.25922"
       id="rect57-66"
       width="4.308931828"
       height="3.811747551"
       x="6.220757008"
       y="26.13279533" /><path
       d="m 51.81336648,29.95105378 v 0.98545546 0.98783573 h -0.98545546 -0.9878356 v 0.98783573 0.98545546 h -0.98783584 -0.98545547 v 0.98783571 0.98783573 h -1.97567144 -1.97329106 v 0.98545546 0.98783573 h -0.98783585 -0.98545547 v 1.87569776 1.87569777 h 0.98545547 0.98783585 v 0.98545547 0.98783572 h 0.9878356 0.98545546 v 0.98783573 0.98783571 h -0.98545546 -0.9878356 v 0.98545547 0.98783572 h -0.98783585 -0.98545547 v 1.97329119 1.97567144 h -1.87569777 -1.87569776 v 0.98545547 0.98783572 h 1.77572409 v 0.88786205 0.8616784 h 4.03227409 v 1.99709444 h 0.0523673 v 0.004758 h 1.83761255 1.97567146 v 0.007137 h 0.004771 v 1.93996739 h 3.40386761 v -1.94472728 h 0.53795398 v -0.002379 h 0.98783586 0.54985541 v -1.97567164 h -0.5498553 -0.98783586 V 53.34252355 51.46920617 H 49.84008589 47.86679458 V 50.48137031 49.4935346 h 4.83682468 0.64744896 V 29.95104956 H 52.8012127 Z M 37.59567282,55.22774735 v 1.90902234 h 0.002379 v -1.90902234 z"
       style="baseline-shift:baseline;display:inline;overflow:visible;vector-effect:none;fill:#ffffff;stroke-width:1.21873;enable-background:accumulate;stop-color:#000000;stop-opacity:1"
       id="path43" /><path
       d="m 12.70935291,8.432896794 v 7.845558096 h 5.93891616 v -0.93784882 -0.98545546 h -0.98545546 -0.98783585 v -1.97567145 -1.97329119 h 0.98783585 0.98545546 v 1.97329119 1.97567145 h 0.9878356 0.98783586 v -0.98783572 -0.98783573 h 0.98545546 0.98783559 V 11.3940237 10.40618797 h 0.88786217 0.0404654 V 8.432896794 Z m 0.0166627,3.946582366 h 0.98783571 0.98783573 v 0.98783573 0.98783572 h -0.98783573 -0.98783571 v -0.98783572 z"
       style="baseline-shift:baseline;display:inline;overflow:visible;vector-effect:none;fill:#ffffff;stroke-width:1.21873;enable-background:accumulate;stop-color:#000000;stop-opacity:1"
       id="path42" /><path
       d="m 22.59723158,4.68150125 v 0.987835852 0.985455334 h 0.88786217 0.88786193 V 5.669337102 4.68150125 h -0.88786193 z m 5.72468673,0 v 2.861153232 2.863533488 h -0.98783573 -0.98545546 v 0.98783573 0.98545546 H 25.36079139 24.37295568 V 11.3940237 10.40618797 h -0.88786193 -0.88786217 v 0.98783573 0.98545546 h -0.98783559 -0.98545546 v 0.98783573 0.98783572 h -0.98783586 -0.9878356 v 0.98545546 0.98783572 h -0.98545546 -0.98783585 v 0.98783573 0.98545546 h 0.98783585 0.98545546 v 0.98783572 0.98783573 h 0.9878356 0.98783586 v 0.98545546 0.98783572 h 0.98545546 0.98783559 v -1.97329118 -1.97567145 h 2.86353362 2.86115311 v -0.98545546 -0.98783573 h 4.93679848 4.93441797 v 0.98783573 0.98545546 h 0.88786217 0.88786192 v -0.98545546 -0.98783573 h 1.97567144 1.97329132 v 1.97329119 1.97567145 h 4.83682468 8.78578718 V 19.2895687 18.30173298 h -0.9878356 -0.98783584 V 16.32844179 14.35515061 H 54.6769001 53.78903793 V 13.36731489 12.37947916 H 52.80120234 51.81336648 V 11.3940237 10.40618797 h -0.98545546 -0.9878356 V 9.418352246 8.432896794 H 48.85223958 47.86678411 V 7.542654482 6.654792436 H 46.87894852 43.91782161 V 5.669337102 4.68150125 H 41.05428798 38.19313476 V 5.669337102 6.654792436 H 36.2198437 34.24417225 V 5.669337102 4.68150125 h -2.96112691 z m 11.64694054,13.62023173 v 0.98783572 0.98783573 h 1.97567144 V 19.2895687 18.30173298 H 40.9566947 Z m 0,1.97567145 H 37.10770562 34.24417225 V 19.2895687 18.30173298 h -0.98545546 -0.98783585 v 1.97567145 1.97329118 h 1.97329131 1.97567145 1.87331738 1.87569777 v -0.98783572 z m -21.32058978,0 h -1.97329131 -1.97329118 v 0.98545546 0.98783572 h -0.98783572 -0.98783573 v 0.88786205 0.89024231 h 1.97567145 1.97329118 v -0.89024231 -0.88786205 h 0.98783585 0.98545546 v -0.98783572 z m 0,-5.92225382 v -1.97567145 -1.97329119 h -0.98545546 -0.98783585 v 1.97329119 1.97567145 h 0.98783585 z m 5.72468661,-3.94896264 h 0.98783571 0.98783573 V 9.418352246 8.432896794 h -0.98783573 -0.98783571 v 0.985455452 z m -11.64694055,1.97329119 v 0.98783573 0.98783572 h 0.98783573 0.98783572 v -0.98783572 -0.98783573 h -0.98783572 z m 13.62261199,7.89792527 v 0.98545546 0.98783572 h 1.97329119 1.97329119 v -0.98783572 -0.98545546 h -1.97329119 z m -5.72468659,3.75139554 v 0.98545545 0.98783573 h -1.97567146 -1.97329131 v 0.98783573 0.98545546 h 0.98783585 0.98545546 v 0.98783572 0.98783572 h -0.98545546 -0.98783585 v 0.98545546 0.98783573 h 0.98783585 0.98545546 v 0.98783573 0.98545546 h -1.97329131 -1.97329118 v 0.98783571 0.98783573 h 1.97329118 1.97329131 v 0.98545546 0.98783573 h 2.86353337 2.86115324 v 3.84898895 3.85136921 h 0.98783571 0.98783573 v 2.96112692 2.9611269 h 0.98545546 0.98783573 v 0.98545547 0.98783572 h -0.98783573 -0.98545546 v 0.88786205 0.88786205 h -0.98783573 -0.98783571 v 0.98783571 0.98783573 h -0.88786193 -0.88786217 v 0.98545546 0.98783573 h 7.79795159 4.16557246 v -1.96376988 -0.0666496 -1.98995353 h 1.64956676 v -1.70431419 h 0.009516 v -1.9732912 -1.97567144 h -0.98783533 -0.9878356 v -0.9854555 -0.98783572 H 33.25871193 32.27087608 V 45.54695645 43.571285 H 31.28304356 30.2952077 v -6.81011587 -6.81011585 h 0.98783586 0.98783559 v -1.97567146 -1.97329118 h -2.96112691 -2.96112691 v -0.98783572 -0.98545546 h -2.86353337 z m 11.64694041,1.97329118 h 0.98783585 0.98545546 v -0.98783573 -0.98545545 h -1.97329131 v 0.98545545 z M 22.59723158,57.1938975 v -0.98783573 -0.98783571 h -0.98783559 -0.98545546 v 0.98783571 0.98783573 z m -1.97329105,-1.97567144 v -0.88786205 -0.88786205 h -0.98783586 -0.9878356 v 0.88786205 0.88786205 h 0.9878356 z m 1.97329105,0 h 0.88786217 0.88786193 v -0.88786205 -0.88786205 h -0.88786193 -0.88786217 v 0.88786205 z m 1.7757241,-1.7757241 h 0.98783571 0.98783573 v -0.98783572 -0.98545547 h -0.98783573 -0.98783571 v 0.98545547 z M 16.67497776,29.95105378 v -0.98783572 -0.98783572 h -0.98783559 -0.98545559 v 0.98783572 0.98783572 h 0.98545559 z m -11.646940542,9.6712691 v 1.97567144 1.97329119 h 0.985455594 0.987835595 v 0.98783573 0.98783571 H 7.889190574 8.777052499 V 43.57128551 41.59799432 H 7.889190574 7.001328407 V 40.6101586 39.62232288 H 6.013492812 Z m 7.697977912,11.84688789 v 0.98545547 0.98783572 h 0.98783573 0.98783572 v -0.98783572 -0.98545547 h -0.98783572 z m 1.97567145,1.97329119 v 1.7757241 h 1.97329118 v -0.88786205 -0.88786205 h -0.98783559 z m 17.56919436,-1.97329119 h 0.98783585 0.98545546 v 0.98545547 0.98783572 h -0.98545546 -0.98783585 v -0.98783572 z m 11.78261917,5.72468673 v 0.007137 h 3.813284 v -0.007137 h -1.97567144 z m 7.75986637,0 v 0.002379 h 3.75139555 v -0.002379 H 54.6769001 53.78903793 52.80120234 Z"
       style="baseline-shift:baseline;display:inline;overflow:visible;vector-effect:none;fill:url(#linearGradient27);stroke-width:1.21873;enable-background:accumulate;stop-color:#000000;stop-opacity:1"
       id="path41" /><path
       d="m 47.87154489,59.14100504 v 0.0666496 h -1.8637962 v 1.92806493 h -0.11663525 v 0.004758 h 0.98783585 8.6858135 v -1.97329119 -0.002379 h -4.28934953 v -0.0238038 z m 7.69321714,1.99947484 v 0.98783571 0.11425614 h 0.004771 v -1.10209147 z"
       style="baseline-shift:baseline;display:inline;overflow:visible;vector-effect:none;fill:#aa0000;stroke-width:1.21873;enable-background:accumulate;stop-color:#000000;stop-opacity:1"
       id="path40" /><path
       d="m 38.19313476,59.19099194 v 1.94948794 h 5.73658841 v -0.004758 h -0.06903 v -1.93758649 h -5.52711963 v -0.007137 z"
       style="baseline-shift:baseline;display:inline;overflow:visible;vector-effect:none;fill:#aa0000;stroke-width:1.21873;enable-background:accumulate;stop-color:#000000;stop-opacity:1"
       id="path39" /><path
       d="m 51.2754125,57.19627789 v 1.9685304 h 4.28934953 v -1.9685304 z"
       style="baseline-shift:baseline;display:inline;overflow:visible;vector-effect:none;fill:#aa0000;stroke-width:1.21873;enable-background:accumulate;stop-color:#000000;stop-opacity:1"
       id="path38" /><path
       d="m 47.86678411,6.654792436 v 0.887862046 0.890242312 h 0.98545547 0.98783584 V 7.542654482 6.654792436 h -0.98783584 z m 1.97329131,1.778104358 v 0.985455452 0.987835724 h 0.9878356 0.98545546 V 9.418352246 8.432896794 h -0.98545546 z m 1.97329106,1.973291176 v 0.98783573 0.98545546 h 0.98783586 0.98783559 V 11.3940237 10.40618797 h -0.98783559 z m 1.97567145,1.97329119 v 0.98783573 0.98783572 h 0.88786217 0.88786193 V 13.36731489 12.37947916 H 54.6769001 Z m 1.7757241,1.97567145 v 1.97329118 1.97329119 h 0.98783584 0.9878356 v -1.97329119 -1.97329118 h -0.9878356 z m 1.97567144,3.94658237 v 0.98783572 0.98783573 h -8.78578718 -8.78578744 v 0.98545546 0.98783572 H 38.09316108 36.2198437 v 0.88786205 0.89024231 h -0.98783586 -0.98783559 v 0.98545545 0.98783573 h -0.98545546 -0.98783585 v 1.97329119 1.97567144 h -0.9878356 -0.98783584 v 6.81011587 6.81011586 h 0.98783584 0.9878356 v 1.97567144 1.97329119 h 0.98783585 0.98545546 v 0.98783573 0.98545546 h 0.98783559 0.98783586 v 1.97567144 1.97329119 h 1.97329106 v -0.98783572 -0.98545547 h 1.87569776 1.87569777 v -1.97567144 -1.97329119 h 0.98545547 0.98783585 v -0.98783572 -0.98545547 h 0.9878356 0.98545546 v -0.98783571 -0.98783573 h -0.98545546 -0.9878356 v -0.98783572 -0.98545547 h -0.98783585 -0.98545547 v -1.87569777 -1.87569776 h 0.98545547 0.98783585 V 36.85876306 35.8733076 h 1.97329106 1.97567144 v -0.98783573 -0.98783571 h 0.98545547 0.98783584 V 32.9121807 31.92434497 h 0.9878356 0.98545546 v -0.98783573 -0.98545546 h 0.98783586 0.98783559 v -0.98783572 -0.98783572 h 2.86115323 2.86353363 v 1.97567144 1.97329119 h -0.98783586 -0.98545546 v 0.98783573 0.98545546 H 55.6647357 53.78903793 v 0.98783571 0.96879313 h 1.804288 v 0.0190431 h 1.05686523 2.86353363 v 1.87569764 1.87331751 h 0.98783559 0.98545547 v -4.83444443 -4.83682467 h 0.98783584 0.9878356 v -2.96112691 -2.9611269 h -0.9878356 -0.98783584 v -0.89024231 -0.88786205 h -0.98545547 -0.98783559 v -1.97329119 -1.97567144 h -0.98783586 z m 3.94658238,21.3205899 v 0.98783572 0.98783572 h 0.98783584 0.9878356 V 40.6101586 39.62232288 h -0.9878356 z m 0,1.97567144 h -1.97329106 -1.97329132 v 3.94896263 3.94658238 h 0.98545546 0.98783586 v -2.96112691 -2.96112691 h 0.98783559 0.98545547 v -0.98783572 z m -3.94658238,7.89554501 h -4.83682468 -4.83682468 v 0.98783572 0.98783572 h 1.97329131 1.97329106 v 1.87331751 1.87569778 h 0.98783586 0.98783559 v -1.87569778 -1.87331751 h 1.87569777 1.87569777 v -0.98783572 z m -3.75139554,5.72468673 v 0.98783571 0.98783573 h 0.88786217 0.88786193 V 56.20606177 55.21822606 H 54.6769001 Z m 1.7757241,1.97567144 v 1.97329119 1.97329119 h 1.97567144 1.97329132 V 60.15502441 59.16718869 H 58.52588893 57.54043347 V 58.17935296 57.1938975 h -0.9878356 z m 0,3.94658238 h -8.68581351 -8.68581376 v 0.98783571 0.98783573 h 8.68581376 8.68581351 v -0.98783573 z m -17.37162727,0 v -0.98545547 -0.96403247 h -3.63237913 v -0.0238038 h -4.16557246 -7.79795159 v 0.98783584 0.98545546 h 7.79795159 z M 22.59723158,59.16718869 V 58.17935296 57.1938975 h -1.97329105 -1.97567146 v 0.98545546 0.98783573 h 1.97567146 z M 18.64826907,57.1938975 v -0.98783573 -0.98783571 h -1.97329131 -1.97329118 v 0.98783571 0.98783573 h 1.97329118 z"
       style="baseline-shift:baseline;display:inline;overflow:visible;vector-effect:none;fill:#000000;stroke-width:1.21873;enable-background:accumulate;stop-color:#000000;stop-opacity:1"
       id="path37" /><path
       d="m 44.05350011,57.20103854 v 1.92330428 h 1.95424858 v 0.083311 h 1.8637962 v -2.00661575 z"
       style="baseline-shift:baseline;display:inline;overflow:visible;vector-effect:none;fill:#aa0000;stroke-width:1.21873;enable-background:accumulate;stop-color:#000000;stop-opacity:1"
       id="path36" /><path
       d="m 39.96885885,55.19204241 v 0.0357046 h -0.0214222 v 1.9613895 h 4.05369696 v -1.99709445 z"
       style="baseline-shift:baseline;display:inline;overflow:visible;vector-effect:none;fill:#aa0000;stroke-width:1.21873;enable-background:accumulate;stop-color:#000000;stop-opacity:1"
       id="path35" /><path
       d="m 36.21032239,53.44250196 v 1.7043142 h 1.38535043 v 0.0809306 h 0.002379 v -0.0238026 h 2.3493829 v 0.0238026 h 0.0214222 V 53.4425015 Z"
       style="baseline-shift:baseline;display:inline;overflow:visible;vector-effect:none;fill:#aa0000;stroke-width:1.21873;enable-background:accumulate;stop-color:#000000;stop-opacity:1"
       id="path34" /><path
       d="m 37.59567282,57.13676969 v 0.0666496 h -3.03491719 v 1.98757314 h 3.77281853 V 57.1962784 H 37.59805308 V 57.13677 Z"
       style="baseline-shift:baseline;display:inline;overflow:visible;vector-effect:none;fill:#aa0000;stroke-width:1.21873;enable-background:accumulate;stop-color:#000000;stop-opacity:1"
       id="path33" /><path
       d="m 34.56075563,55.14681616 v 2.05660265 h 3.03491719 v -2.05660265 z"
       style="baseline-shift:baseline;display:inline;overflow:visible;vector-effect:none;fill:#aa0000;stroke-width:1.21873;enable-background:accumulate;stop-color:#000000;stop-opacity:1"
       id="path32" /><path
       d="m 37.59805308,55.2039441 v 1.99233379 h 0.73552108 v -0.007137 h 1.61386182 v -1.98519287 z"
       style="baseline-shift:baseline;display:inline;overflow:visible;vector-effect:none;fill:#ff0000;stroke-width:1.21873;enable-background:accumulate;stop-color:#000000;stop-opacity:1"
       id="path31" /><path
       d="m 38.33357416,57.18913685 v 2.00899613 h 5.52711951 v -0.0737908 h 0.19280644 v -1.93520593 z"
       style="baseline-shift:baseline;display:inline;overflow:visible;vector-effect:none;fill:#ff0000;stroke-width:1.21873;enable-background:accumulate;stop-color:#000000;stop-opacity:1"
       id="path30" /><path
       d="m 43.86069367,59.12434282 v 2.0113764 h 2.14705502 v -2.0113764 z"
       style="baseline-shift:baseline;display:inline;overflow:visible;vector-effect:none;fill:#ff0000;stroke-width:1.21873;enable-background:accumulate;stop-color:#000000;stop-opacity:1"
       id="path29" /><path
       d="m 53.7652348,35.854265 v 1.99947483 h 1.82809113 V 35.854265 Z"
       style="baseline-shift:baseline;display:inline;overflow:visible;vector-effect:none;fill:#0000ff;stroke-width:1.21873;enable-background:accumulate;stop-color:#000000;stop-opacity:1"
       id="path28" /><rect
       style="fill:#ffffff"
       id="rect55"
       width="5.170718193"
       height="2.762135744"
       x="11.44629097"
       y="14.4735918" /><rect
       style="fill:#ffffff"
       id="rect56"
       width="7.07106781"
       height="3.800698996"
       x="7.535106659"
       y="16.72749519" /><rect
       style="fill:#ffffff;stroke-width:1.12356"
       id="rect57-6"
       width="4.308931828"
       height="0.4529902935"
       x="7.011048317"
       y="18.13832092" /><rect
       style="fill:#ffffff;stroke-width:0.907847"
       id="rect57-0"
       width="10.88705635"
       height="0.1170527935"
       x="5.040902138"
       y="26.04871559" /><rect
       style="fill:#ffffff;stroke-width:1.12356"
       id="rect57"
       width="4.308931828"
       height="0.4529902935"
       x="14.32996082"
       y="19.8155632" /><rect
       style="fill:#ffffff;stroke-width:1.12356"
       id="rect57-4"
       width="4.308931828"
       height="0.4529902935"
       x="8.171038628"
       y="16.33698082" /><rect
       style="fill:#ffffff;stroke-width:2.34224"
       id="rect57-8"
       width="4.308931828"
       height="1.968615294"
       x="10.75"
       y="10.40625" /><rect
       style="fill:#ffffff;stroke-width:2.23794"
       id="rect57-49"
       width="3.965181828"
       height="1.952990294"
       x="14.6875"
       y="6.65625" /><rect
       style="fill:#ffffff;stroke-width:0.958126"
       id="rect57-63"
       width="0.9261193275"
       height="1.532652497"
       x="22.6015625"
       y="7.991418839" /><rect
       style="fill:#ffffff;stroke-width:3.22531"
       id="rect57-7"
       width="9.621431351"
       height="1.671740294"
       x="5.0625"
       y="24.8125" /><rect
       style="fill:#ffffff"
       id="rect59"
       width="0.375"
       height="19.40625"
       x="53.09375"
       y="30" /><rect
       style="fill:#ffffff"
       id="rect60"
       width="0.53125"
       height="3.875"
       x="57.34375"
       y="28" /><rect
       style="fill:#ffffff"
       id="rect61"
       width="0.65625"
       height="5.6875"
       x="57.3125"
       y="35.875" /><rect
       style="fill:#ffffff"
       id="rect62"
       width="0.9280776381"
       height="4.772970676"
       x="52.85623169"
       y="33.41079712" /><g
       transform="matrix(0.5709916504,-0.5275818126,-1.161086248,-1.256621319,-101.2940345,36.63954455)"
       filter="url(#dropShadowSoft)"
       id="g7"><g
         id="g26"
         transform="matrix(0.1088802171,0,0,0.1088802171,120.3778687,-55.88903326)"><path
           d="M 0,0 Q 200,15 380,-20 L 400,0 Q 220,35 0,15 Z"
           fill="url(#gradBarRefined)"
           id="path6"
           style="fill:url(#gradBarRefined)" /><path
           d="M 10,2 Q 200,15 370,-15"
           fill="none"
           stroke="#ffffff"
           stroke-width="2"
           opacity="0.5"
           id="path7" /></g></g></g><metadata
     id="metadata62"><rdf:RDF><cc:Work
         rdf:about=""><dc:title>G3Pix AxonASP Icon</dc:title><dc:creator><cc:Agent><dc:title>Lucas Guimarães</dc:title></cc:Agent></dc:creator><cc:license
           rdf:resource="http://creativecommons.org/licenses/by-sa/4.0/" /></cc:Work><cc:License
         rdf:about="http://creativecommons.org/licenses/by-sa/4.0/"><cc:permits
           rdf:resource="http://creativecommons.org/ns#Reproduction" /><cc:permits
           rdf:resource="http://creativecommons.org/ns#Distribution" /><cc:requires
           rdf:resource="http://creativecommons.org/ns#Notice" /><cc:requires
           rdf:resource="http://creativecommons.org/ns#Attribution" /><cc:permits
           rdf:resource="http://creativecommons.org/ns#DerivativeWorks" /><cc:requires
           rdf:resource="http://creativecommons.org/ns#ShareAlike" /></cc:License></rdf:RDF></metadata></svg>
