<?xml version="1.0" encoding="UTF-8" standalone="no"?>
<svg version="1.1" id="svg1" width="520.4990234" height="62.11883545" viewBox="0 0 520.4990234 62.11883545"
   xmlns="http://www.w3.org/2000/svg"
   xmlns:svg="http://www.w3.org/2000/svg"
   xmlns:rdf="http://www.w3.org/1999/02/22-rdf-syntax-ns#"
   xmlns:cc="http://creativecommons.org/ns#"
   xmlns:dc="http://purl.org/dc/elements/1.1/">
   <title id="title1">G3Pix AxonASP Logo</title>
   <defs id="defs1">
      <style>
      .g3pix{fill:#000;}
     @media (prefers-color-scheme: dark) {
        .g3pix {
          fill: #f4f4f4!important;
        }
     }
   .axonasp{fill:#1a1a1a;}
     @media (prefers-color-scheme: dark) {
        .axonasp {
          fill: #e0e0e0!important;
        }
     }
      </style>
   </defs>
   <g id="g1" transform="translate(-99.44553455,-316.7312537)">
      <path style="font-weight:bold;font-size:619.284px;font-family:Tahoma;-inkscape-font-specification:'Tahoma Bold';letter-spacing:0px;fill:#049c4d;fill-opacity:1;stroke-width:1.22036" d="m 310.9628114,344.1893869 11.8985243,-11.8985244 11.8985244,11.8985244 -11.8985244,11.593434 z" id="path4" />
      <path style="font-weight:bold;font-size:619.284px;font-family:Tahoma;-inkscape-font-specification:'Tahoma Bold';letter-spacing:0px;fill:#60941a;fill-opacity:1;stroke-width:1.22036" d="m 303.6406424,344.1893869 -11.8985243,11.593434 -11.8985244,-11.593434 11.8985244,-11.8985244 z" id="path3" />
      <path style="font-weight:bold;font-size:619.284px;font-family:Tahoma;-inkscape-font-specification:'Tahoma Bold';letter-spacing:0px;fill:#edc00f;fill-opacity:1;stroke-width:1.22036" d="m 307.3017269,347.8504714 11.593434,11.8985243 -11.593434,11.8985244 -11.5934341,-11.8985244 z" id="path2" />
      <path style="font-weight:bold;font-size:619.284px;font-family:Tahoma;-inkscape-font-specification:'Tahoma Bold';letter-spacing:0px;fill:#004aad;fill-opacity:1;stroke-width:1.22036" d="m 307.3017269,340.2232121 -11.5934341,-11.593434 11.5934341,-11.8985244 11.593434,11.8985244 z" id="text1" />
      <path style="font-weight:bold;font-size:64px;font-family:'Helvetica Neue LT Std';-inkscape-font-specification:'Helvetica Neue LT Std Bold';letter-spacing:0px" class="g3pix" d="m 135.4775345,367.2020874 h 6.4 v -24.704 h -19.2 v 7.488 h 10.112 c -0.576,6.336 -4.352,9.856 -10.88,9.856 -9.024,0 -12.416,-7.68 -12.416,-15.296 0,-8 3.392,-15.68 12.416,-15.68 4.736,0 8.512,2.624 9.664,7.68 h 9.6 c -1.088,-10.368 -9.92,-16.128 -19.264,-16.128 -14.144,0 -22.46399995,10.56 -22.46399995,24.128 0,13.184 8.31999995,23.744 22.46399995,23.744 4.416,0 9.024,-1.728 12.544,-6.272 z m 24.7040499,-20.288 c 4.416,0 10.368,-0.128 10.368,6.656 0,4.224 -3.2,7.04 -7.296,7.04 -5.248,0 -7.68,-3.968 -7.872,-8.832 h -8.64 c -0.192,10.304 6.592,16.32 16.64,16.32 8.768,0 16.64,-5.312 16.64,-14.72 0,-4.992 -3.008,-9.088 -7.936,-10.176 v -0.128 c 4.16,-1.152 6.272,-4.928 6.272,-9.152 0,-8 -7.872,-12.416 -15.04,-12.416 -9.216,0 -15.168,6.336 -15.488,15.488 h 8.64 c -0.064,-4.608 2.368,-8 6.912,-8 3.328,0 6.336,2.176 6.336,5.952 0,5.12 -5.632,5.888 -9.536,5.568 z m 24.4479843,31.936 h 9.088 v -15.744 h 0.128 c 2.176,3.264 5.952,4.992 9.92,4.992 9.664,0 14.528,-8.256 14.528,-17.088 0,-9.408 -4.672,-17.792 -15.04,-17.792 -4.096,0 -7.68,1.6 -9.856,5.12 h -0.128 v -4.224 h -8.64 z m 16.704,-17.6 c -5.888,0 -7.936,-5.12 -7.936,-10.496 0,-5.376 1.92,-10.688 7.872,-10.688 5.824,0 7.936,5.44 7.936,10.688 0,5.376 -1.92,10.496 -7.872,10.496 z m 22.6560039,5.952 h 9.088 v -33.088 h -9.088 z m 9.088,-45.696 h -9.088 v 7.488 h 9.088 z m 3.7119629,45.696 h 10.176 l 6.912,-10.432 6.912,10.432 h 10.368 l -12.224,-17.6 10.88,-15.488 h -10.048 l -5.76,8.64 -5.824,-8.64 h -10.368 l 10.88,15.68 z" id="text4" aria-label="G3pix" />
      <path style="font-weight:500;font-size:64px;font-family:'Helvetica Neue LT Std';-inkscape-font-specification:'Helvetica Neue LT Std Medium';letter-spacing:0px;" class="axonasp" d="m 364.6485081,329.1575979 h 0.192 l 6.848,19.648 h -13.952 z m -21.632,37.824 h 8.256 l 4.288,-12.096 h 18.24 l 4.288,12.096 h 8.576 l -17.6,-45.696 h -8.512 z m 43.3919882,0 h 8.576 l 8.128,-12.224 8.384,12.224 h 8.768 l -12.672,-17.792 11.264,-15.296 h -8.448 l -7.232,10.176 -6.912,-10.176 h -8.832 l 11.456,15.68 z m 53.120042,-4.864 c -6.528,0 -9.408,-5.952 -9.408,-11.712 0,-5.696 2.88,-11.648 9.408,-11.648 6.528,0 9.408,5.952 9.408,11.648 0,5.76 -2.88,11.712 -9.408,11.712 z m 0,5.76 c 10.624,0 16.704,-7.296 16.704,-17.472 0,-10.112 -6.08,-17.408 -16.704,-17.408 -10.624,0 -16.704,7.296 -16.704,17.408 0,10.176 6.08,17.472 16.704,17.472 z m 22.7840264,-0.896 h 7.296 v -19.52 c 0,-4.864 3.136,-8.704 8,-8.704 4.288,0 6.336,2.24 6.464,7.424 v 20.8 h 7.296 v -22.72 c 0,-7.424 -4.544,-11.264 -11.712,-11.264 -4.352,0 -8.128,2.24 -10.304,5.888 l -0.128,-0.128 v -4.864 h -6.912 z m 54.0799619,-37.824 h 0.192 l 6.848,19.648 h -13.952 z m -21.632,37.824 h 8.256 l 4.288,-12.096 h 18.24 l 4.288,12.096 h 8.576 l -17.6,-45.696 h -8.512 z m 45.2479883,-15.232 c 0.192,11.328 8.64,16.32 19.072,16.32 9.088,0 18.176,-4.096 18.176,-14.336 0,-4.736 -2.88,-9.856 -8.896,-11.648 -2.368,-0.704 -12.48,-3.328 -13.184,-3.52 -3.264,-0.896 -5.44,-2.688 -5.44,-5.888 0,-4.608 4.672,-5.952 8.384,-5.952 5.504,0 9.472,2.176 9.856,8.064 h 8 c 0,-9.536 -8,-14.592 -17.536,-14.592 -8.256,0 -16.704,4.288 -16.704,13.44 0,4.736 2.304,9.472 10.112,11.584 6.272,1.728 10.432,2.56 13.632,3.776 1.856,0.704 3.776,2.112 3.776,5.632 0,3.456 -2.624,6.912 -9.664,6.912 -6.4,0 -11.584,-2.752 -11.584,-9.792 z m 52.2240459,-23.936 h 11.84 c 4.224,0 7.872,1.536 7.872,7.552 0,5.76 -4.416,7.552 -8,7.552 h -11.712 z m -8,39.168 h 8 v -17.536 h 12.16 c 13.056,0.064 15.552,-8.384 15.552,-14.016 0,-5.696 -2.496,-14.144 -15.552,-14.144 h -20.16 z" id="text4-8" aria-label="AxonASP" />
      <path style="fill:#004aad;fill-opacity:1" id="path6" d="m -643.6243286,47.39485264 -17.4487036,-30.22204113 -17.4487036,-30.22204114 34.8974072,10e-9 34.8974072,1e-8 -17.4487036,30.22204112 z" transform="matrix(0.3413146853,0,0,0.1918294235,542.5514199,346.6910087)" />
      <path style="fill:#edc00f;fill-opacity:1" id="path6-3" d="m -643.6243286,47.39485264 -17.4487036,-30.22204113 -17.4487036,-30.22204114 34.8974072,10e-9 34.8974072,1e-8 -17.4487036,30.22204112 z" transform="matrix(0.3412956603,0,0,0.1921788292,511.4212653,346.6880324)" />
      <path style="fill:#60941a;fill-opacity:1" id="path6-3-8" d="m -643.6243286,47.39485264 -17.4487036,-30.22204113 -17.4487036,-30.22204114 34.8974072,10e-9 34.8974072,1e-8 -17.4487036,30.22204112 z" transform="matrix(0.3325740226,0,0,0.1915235796,521.3597156,331.1386692)" />
      <path style="fill:#049c4d;fill-opacity:1" id="path6-3-8-8" d="m -643.6243286,47.39485264 -17.4487036,-30.22204113 -17.4487036,-30.22204114 34.8974072,10e-9 34.8974072,1e-8 -17.4487036,30.22204112 z" transform="matrix(0.3327557996,0,0,0.1975047692,521.4699801,362.3018801)" />
   </g>
   <metadata id="metadata1">
      <rdf:RDF>
         <cc:Work rdf:about="">
            <dc:title>G3Pix AxonASP Logo</dc:title>
            <dc:creator>
               <cc:Agent>
                  <dc:title>Lucas Guimarães</dc:title>
               </cc:Agent>
            </dc:creator>
            <dc:rights>
               <cc:Agent>
                  <dc:title>G3Pix Ltda</dc:title>
               </cc:Agent>
            </dc:rights>
            <dc:publisher>
               <cc:Agent>
                  <dc:title>G3Pix</dc:title>
               </cc:Agent>
            </dc:publisher>
            <dc:description>AxonASP Server
Copyright (C) 2026 G3pix Ltda. All rights reserved.
Developed by Lucas Guimarães - G3pix Ltda
Contact: https://g3pix.com.br/
Project URL: https://g3pix.com.br/axonasp
License: MPL 2 - http://mozilla.org/MPL/2.0/.</dc:description>
            <cc:license rdf:resource="http://mozilla.org/MPL/2.0/" />
         </cc:Work>
      </rdf:RDF>
   </metadata>
</svg>
