<?xml version="1.0" encoding="UTF-8"?>
    <!--
    
    AxonASP Server - Version 1.0
    Copyright (C) 2026 G3pix Ltda. All rights reserved.
    
    Developed by Lucas Guimarães - G3pix Ltda
    Contact: https://g3pix.com.br/
    Project URL: https://g3pix.com.br/axonasp
    
    This Source Code Form is subject to the terms of the Mozilla Public
    License, v. 2.0. If a copy of the MPL was not distributed with this
    file, You can obtain one at https://mozilla.org/MPL/2.0/.
    
    Attribution Notice:
    If this software is used in other projects, the name "AxonASP Server"
    must be cited in the documentation or "About" section.
    
    Contribution Policy:
    Modifications to the core source code of AxonASP Server must be
    made available under this same license terms.
 
    -->
<svg id="G3pixAxonAspLogo" width="500" height="200" version="1.1" viewBox="0 0 500 200" xmlns="http://www.w3.org/2000/svg" xmlns:cc="http://creativecommons.org/ns#" xmlns:dc="http://purl.org/dc/elements/1.1/" xmlns:rdf="http://www.w3.org/1999/02/22-rdf-syntax-ns#">
 <title>G3pix AxonASP Logo</title>
 <defs>
  <linearGradient id="gradBarRefined" x2="130.03" y1="-61.522" y2="-61.522" gradientTransform="scale(3.0761 .32509)" gradientUnits="userSpaceOnUse">
   <stop stop-color="#E63020" offset="0"/>
   <!-- Red -->
   <stop stop-color="#fb0" offset=".25"/>
   <!-- Yellow (A ponte) -->
   <stop stop-color="#209040" offset=".55"/>
   <!-- Green -->
   <stop stop-color="#0060D0" offset="1"/>
   <!-- Blue -->
  </linearGradient>
  <filter id="dropShadowSoft" x="-.012" y="-.11355" width="1.029" height="1.2744">
   <feGaussianBlur in="SourceAlpha" stdDeviation="2"/>
   <feOffset dx="2" dy="2"/>
   <feComponentTransfer>
    <feFuncA slope="0.3" type="linear"/>
   </feComponentTransfer>
   <feMerge>
    <feMergeNode/>
    <feMergeNode in="SourceGraphic"/>
   </feMerge>
  </filter>
 </defs>
 <g fill="#202020" stroke-width="1.1522" aria-label="AxonASP">
  <path d="m78.639 114.8h-11.058l-2.2683-13.367h-20.05l-6.1568 13.367h-9.3567l26.49-55.29h12.273zm-14.258-21.063-4.3341-24.546-11.382 24.546zm50.9 21.063h-10.369l-7.3315-15.797-12.435 15.797h-8.9922l17.944-21.832-9.6808-19.362h10.491l5.7112 12.719 9.9238-12.719h8.9112l-15.27 18.551zm19.994 1.0531q-4.5771 0-8.8707-2.0253-4.2531-2.0253-6.5213-6.3998-2.2278-4.4151-2.2278-10.491 0-9.8428 5.7923-17.012 5.7923-7.2099 15.149-7.2099 7.696 0 12.314 5.1847 4.6176 5.1442 4.6176 13.853 0 8.9517-5.5087 16.526-5.5087 7.5745-14.744 7.5745zm0.081011-7.4125q5.5087 0 8.1011-5.6707 2.5923-5.7112 2.5923-11.949 0-10.693-8.2631-10.693-5.7923 0-8.3036 6.1163-2.5113 6.1163-2.5113 12.192 0 5.1442 2.4303 7.5745t5.9543 2.4303zm56.571 6.3593h-9.0732l4.2125-24.749q0.44556-2.7949 0.44556-4.7796 0-2.2683-1.2962-3.8075-1.2557-1.5797-3.848-1.5797-4.1315 0-7.2909 4.2125-3.1594 4.172-4.4556 12.152l-3.1189 18.551h-9.0732l6.8859-41.194h8.4251l-1.6202 9.5998q3.848-7.2099 7.1289-8.9517 3.2809-1.7822 6.3998-1.7822 4.4961 0 7.777 3.0784 3.3214 3.0379 3.3214 8.5061 0 2.1468-0.81011 6.8454z"/>
  <path d="m229.82 103.5h-14.825l-5.1442 11.301h-13.691l25.559-55.29h17.336l8.6276 55.29h-16.324zm-0.97213-11.422-2.2278-16-7.2909 16zm72.003-19.726-14.217 3.605q-0.60758-2.4708-3.0379-3.8885t-5.3467-1.4177q-5.4682 0-5.4682 3.6455 0 1.1747 0.7696 2.0253 0.7696 0.85061 4.3341 2.1063l8.7896 3.1189q3.4429 1.2152 6.3998 3.605 2.9569 2.3493 4.2531 5.1847 1.2962 2.7949 1.2962 5.9948 0 8.3846-6.6024 13.853-6.5619 5.4682-17.539 5.4682-9.3972 0-16.405-3.8075-6.9669-3.8075-9.7213-11.625l15.959-3.1189q2.0658 5.8733 10.207 5.8733 3.4024 0 4.9011-1.2152 1.5392-1.2557 1.5392-2.8354 0-1.0126-0.60758-1.7822-0.56707-0.7696-1.2557-1.0936-0.64808-0.36455-6.2783-2.4303-7.615-2.7949-10.693-4.4151-3.0379-1.6607-5.1037-4.9011-2.0253-3.2404-2.0253-7.615 0-7.5745 5.5492-12.8 5.5897-5.2657 17.053-5.2657 8.7491 0 14.987 3.686 6.2378 3.686 8.2631 10.045zm18.293 22.156-3.4024 20.293h-16.04l9.2352-55.29h18.268q6.4403 0 9.3567 0.56707 2.9569 0.52657 6.0758 2.6328 3.1594 2.0658 4.9821 5.5897 1.8632 3.4835 1.8632 7.4935 0 7.777-5.0632 13.245-5.0632 5.4682-14.501 5.4682zm1.9848-11.828h3.8075q8.7086 0 8.7086-5.9138 0-5.3062-7.2909-5.3062h-3.3619z" fill="#404040"/>
 </g>
 <path d="m88.961 67.419h-1.3698l-0.52983-2.3778q-1.4344 2.7009-4.8073 2.7009-2.8301 0-4.5747-1.9513-1.7446-1.9643-1.7446-5.6602 0-4.523 2.3649-7.689 2.3649-3.1661 6.2288-3.1661 5.0786 0 6.4355 5.2208l-2.7913 0.69783q-0.89167-3.1919-3.7088-3.1919-2.3519 0-3.7347 2.507-1.3827 2.4941-1.3827 5.6989 0 2.4812 0.99505 3.683 1.008 1.2018 2.7009 1.2018 3.011 0 4.0448-4.1482h-3.8381l0.43937-2.6621h6.7974zm4.0478-5.1174q0.23261 1.3181 1.2794 2.1581 1.0467 0.82706 2.5199 0.82706 1.5637 0 2.5716-0.86582 1.008-0.87875 1.008-2.2098 0-1.0209-0.55568-1.68-0.55568-0.67198-1.2535-0.77537-0.69783-0.1163-3.1919-0.1163l0.41353-2.507q0.42645 0.025846 0.76244 0.025846 2.5975 0 3.6313-0.83998 1.0338-0.83998 1.0338-2.0547 0-1.0726-0.82706-1.7058-0.82706-0.64614-2.0159-0.64614-2.6233 0-3.8768 2.5975l-2.675-1.2277q2.3519-3.9285 6.6294-3.9285 2.5975 0 4.2516 1.344 1.667 1.331 1.667 3.3211 0 1.5637-1.0597 2.7396-1.0597 1.176-2.8689 1.4861 1.5378 0.41353 2.3132 1.5507 0.77537 1.1372 0.77537 2.5329 0 2.1969-1.7833 3.8639-1.7704 1.6541-5.014 1.6541-2.6492 0-4.342-1.344-1.6929-1.3569-2.1969-3.4762zm14.373 5.1174h-3.2953l2.9464-17.64h4.7297q2.3003 0 3.3599 0.10338 1.0597 0.090459 2.0676 0.68491 1.008 0.59445 1.6283 1.7187 0.62029 1.1114 0.62029 2.4941 0 1.835-1.008 3.2565-0.99505 1.4086-2.339 1.8609-1.331 0.4523-3.2695 0.4523h-4.2516zm2.5199-15.068-0.89167 5.4017h3.1273q1.6541 0 2.3132-0.20676 0.65906-0.21969 1.163-0.93044 0.50399-0.72367 0.50399-1.7446 0-0.95628-0.4523-1.5637-0.4523-0.62029-1.0726-0.78829-0.62029-0.168-2.2227-0.168zm13.313 0.40061h-3.0368l0.52983-3.1532h3.0368zm-2.4553 14.667h-3.0368l2.1969-13.142h3.0368zm12.099 0h-3.3082l-2.339-5.0399-3.9673 5.0399h-2.8689l5.7248-6.9654-3.0885-6.1771h3.347l1.8221 4.0577 3.1661-4.0577h2.843l-4.8719 5.9186z" fill="#202020" stroke-width=".36758" aria-label="G3Pix"/>
 <path d="m359.38 92.647 3.262-0.69607q0.58688 2.7706 4.504 2.7706 1.788 0 2.7433-0.70972 0.96904-0.70972 0.96904-1.7607 0-0.76432-0.43675-1.4058-0.43675-0.65513-1.8698-1.0236l-3.5623-0.9281q-1.8289-0.4777-2.7024-1.0782-0.8735-0.61418-1.4058-1.7197-0.51864-1.1055-0.51864-2.3612 0-2.4977 1.8562-3.999 1.8562-1.515 4.7497-1.515 2.4021 0 4.2856 1.0509 1.8971 1.0509 2.4158 2.9754l-3.1937 0.79161q-0.73702-2.1155-3.4394-2.1155-1.5696 0-2.4021 0.65513-0.81891 0.65513-0.81891 1.6651 0 1.5969 2.5932 2.2384l3.1664 0.79161q2.8798 0.72337 3.8625 2.1428 0.98269 1.4058 0.98269 3.1119 0 2.7433-2.0746 4.3266-2.0609 1.5696-5.3502 1.5696-2.7706 0-4.8589-1.1601-2.0746-1.1601-2.757-3.6168zm27.505 0.095539 2.8116 0.38216q-0.54594 1.8698-2.1292 3.0846-1.5832 1.2147-3.9717 1.2147-2.8662 0-4.6132-1.9244-1.747-1.9244-1.747-5.2137 0-3.1255 1.7607-5.1728 1.7607-2.0473 4.777-2.0473 2.9481 0 4.5586 2.02 1.6105 2.02 1.6105 5.1864l-0.013648 0.35486h-9.4584q0 1.4058 0.25932 2.252 0.27297 0.84621 1.0646 1.474 0.79161 0.62783 1.979 0.62783 2.3066 0 3.1119-2.2384zm-0.19108-4.1218q-0.013648-1.4877-0.9008-2.4294-0.8735-0.94175-2.1701-0.94175-1.283 0-2.1428 0.88715-0.85985 0.8735-1.01 2.484zm10.199 8.5167h-3.1119v-13.785h2.8116v3.2893q0.60053-1.9244 1.6515-2.8116 1.0509-0.88715 2.1565-0.88715 0.15013 0 0.40945 0.013648v3.3439q-2.3748 0-3.1528 1.515-0.76432 1.515-0.76432 2.9344zm18.197-13.785-4.6814 13.785h-2.5796l-4.7906-13.785h3.2483l3.221 9.3492 3.1392-9.3492zm11.564 9.3902 2.8116 0.38216q-0.54594 1.8698-2.1292 3.0846-1.5832 1.2147-3.9717 1.2147-2.8662 0-4.6132-1.9244-1.747-1.9244-1.747-5.2137 0-3.1255 1.7607-5.1728 1.7607-2.0473 4.777-2.0473 2.9481 0 4.5586 2.02 1.6105 2.02 1.6105 5.1864l-0.013648 0.35486h-9.4584q0 1.4058 0.25932 2.252 0.27297 0.84621 1.0646 1.474 0.79161 0.62783 1.979 0.62783 2.3066 0 3.1119-2.2384zm-0.19108-4.1218q-0.013648-1.4877-0.9008-2.4294-0.8735-0.94175-2.1701-0.94175-1.283 0-2.1428 0.88715-0.85985 0.8735-1.01 2.484zm10.199 8.5167h-3.1119v-13.785h2.8116v3.2893q0.60053-1.9244 1.6515-2.8116 1.0509-0.88715 2.1565-0.88715 0.15013 0 0.40945 0.013648v3.3439q-2.3748 0-3.1528 1.515-0.76432 1.515-0.76432 2.9344z" fill="#666" stroke-width="1.5529" aria-label="Server"/>
 <g transform="matrix(1.1521 0 0 1.1521 17.436 130.49)" filter="url(#dropShadowSoft)">
  <path d="m0 0q200 15 380-20l20 20q-180 35-400 15z" fill="url(#gradBarRefined)"/>
  <path d="m10 2q190 13 360-17" fill="none" opacity=".5" stroke="#fff" stroke-width="2"/>
 </g>
 <metadata>
  <rdf:RDF>
   <cc:Work rdf:about="">
    <dc:title>G3pix AxonASP Logo</dc:title>
    <dc:creator>
     <cc:Agent>
      <dc:title>Lucas Guimarães - G3Pix Ltda</dc:title>
     </cc:Agent>
    </dc:creator>
    <dc:rights>
     <cc:Agent>
      <dc:title>G3Pix Ltda</dc:title>
     </cc:Agent>
    </dc:rights>
    <dc:publisher>
     <cc:Agent>
      <dc:title>G3Pix Ltda</dc:title>
     </cc:Agent>
    </dc:publisher>
   </cc:Work>
  </rdf:RDF>
 </metadata>
</svg>
